<?xml version="1.0" encoding="utf-8"?>
<!-- Generator: Adobe Illustrator 18.1.1, SVG Export Plug-In . SVG Version: 6.00 Build 0)  -->
<svg version="1.1" id="Layer_1" xmlns="http://www.w3.org/2000/svg" xmlns:xlink="http://www.w3.org/1999/xlink" x="0px" y="0px"
	 viewBox="0 0 231 231" enable-background="new 0 0 231 231" xml:space="preserve">
<rect x="-30" y="-32.5" display="none" fill-rule="evenodd" clip-rule="evenodd" fill="#6D6E71" width="335" height="324"/>
<path fill-rule="evenodd" clip-rule="evenodd" fill="none" stroke="#999999" stroke-width="9" stroke-miterlimit="10" d="M115.5,4.5
	c61.3,0,111,49.7,111,111s-49.7,111-111,111s-111-49.7-111-111S54.2,4.5,115.5,4.5z"/>
<path display="none" fill="#999999" d="M175.6,119.4c0-29.7-27.5-54.8-60.1-54.8s-60.1,25.1-60.1,54.8c0,7.9,1.4,15.5,4.3,22.7
	l1.4,3.5l13.4,2.4c2.1,7.9,9.2,13.7,17.8,13.7v2.3c0,1.3,1,2.3,2.3,2.3h4.6c1.3,0,2.3-1,2.3-2.3v-41.6c0-1.3-1-2.3-2.3-2.3h-4.6
	c-1.3,0-2.3,1-2.3,2.3v2.3c-6.9,0-12.9,3.8-16.1,9.5l-4.9-0.9c-1.4-4.5-2.1-9.1-2.1-13.9c0-21.8,21.6-40.9,46.2-40.9
	s46.2,19.1,46.2,40.9c0,4.8-0.7,9.5-2.1,13.9l-4.9,0.9c-3.2-5.6-9.2-9.5-16.1-9.5v-2.3c0-1.3-1-2.3-2.3-2.3h-4.6
	c-1.3,0-2.3,1-2.3,2.3V164c0,1.3,1,2.3,2.3,2.3h4.6c1.3,0,2.3-1,2.3-2.3v-2.3c8.6,0,15.7-5.9,17.8-13.7l13.4-2.4l1.4-3.5
	C174.2,134.9,175.6,127.3,175.6,119.4z"/>
<path display="none" fill="#999999" d="M143.2,151.1c0,2.2-1.8,4-4,4c-2.2,0-4-1.8-4-4s1.8-4,4-4
	C141.4,147.1,143.2,148.9,143.2,151.1z M159,151.1c0,2.2-1.8,4-4,4c-2.2,0-4-1.8-4-4s1.8-4,4-4C157.2,147.1,159,148.9,159,151.1z
	 M166.9,137.2c0-3.3-2.7-5.9-5.9-5.9h-28.6l-8.4,8.4c-2.3,2.2-5.2,3.5-8.4,3.5c-3.1,0-6.1-1.2-8.4-3.5l-8.3-8.4H70.1
	c-3.3,0-5.9,2.7-5.9,5.9V157c0,3.3,2.7,5.9,5.9,5.9h90.9c3.3,0,5.9-2.7,5.9-5.9V137.2z M146.8,102.1c-0.6-1.4-2-2.4-3.6-2.4h-15.8
	V72c0-2.2-1.8-4-4-4h-15.8c-2.2,0-4,1.8-4,4v27.7H87.8c-1.6,0-3,1-3.6,2.4c-0.6,1.5-0.3,3.2,0.9,4.3l27.7,27.7
	c0.7,0.8,1.8,1.2,2.8,1.2c1,0,2-0.4,2.8-1.2l27.7-27.7C147.1,105.3,147.4,103.6,146.8,102.1z"/>
<path fill="#999999" d="M168,102.4c0-1-0.4-1.9-1.1-2.6l-30-30c-0.7-0.7-1.6-1.1-2.6-1.1c-2,0-3.7,1.7-3.7,3.7v15h-13.1
	c-19.2,0-43.1,3.4-51.2,23.6c-2.5,6.2-3.1,12.9-3.1,19.5c0,8.2,4.1,18.9,7.4,26.4c0.6,1.3,1.3,3.2,2.2,4.4c0.4,0.6,0.8,1,1.6,1
	c1.2,0,1.9-0.9,1.9-2c0-0.9-0.2-2-0.3-2.9c-0.2-2.4-0.3-4.8-0.3-7.2c0-27.9,16.6-32.8,41.8-32.8h13.1v15c0,2,1.7,3.7,3.7,3.7
	c1,0,1.9-0.4,2.6-1.1l30-30C167.6,104.3,168,103.4,168,102.4z"/>
</svg>
