<svg id="Layer_1" xmlns="http://www.w3.org/2000/svg" width="214.627" height="44.784" viewBox="0 0 214.627 44.784"><style><![CDATA[
    #logo{fill:#ffffff;}
	.st1{fill-rule:evenodd;clip-rule:evenodd;}
]]></style><g id="logo"><path class="st1" d="M44.542 20.142c-.177-1.384-.334-2.572-.712-3.758-1.646-5.17-4.53-9.375-8.53-12.186-.995-.7-1.436-.867-2.527-1.503C30.258 1.23 24.8-.593 19.153.188c-1.616.222-3.046.588-4.47 1.167C8.672 3.8 4.09 7.917 1.584 13.845-.837 19.57-.307 26.33 1.99 31.62c3.3 7.6 10.538 13.306 21.633 13.163-.012-.78-.003-3.108-.003-3.108v-9.344h.102c1.31 2.775 5.994 4.13 9.24 2.134 2.497-1.536 3.57-4.29 3.897-7.2.174-1.55.093-2.934-.14-3.77-.908-3.295-2.316-5.406-5.28-6.6-3.07-1.237-6.534-.028-7.904 2.443-.023-.186-.012-2.125-.017-2.34h-7.416c-.082-4.875 2.4-5.77 7.212-5.688V6.94C15.634 6.9 10.68 9.208 10.722 16.994h-3.25c-.647 1.34-.738 2.702-.71 3.554 1.197-.007 3.818.068 3.96.103v12.39c.42 1.043 4.007 3.28 5.382 3.453V20.547c.686-.007 1.902-.004 2.133.03v13.07c0 1.004.157 4.76-.1 4.978-.203.124-1.108-.27-1.423-.406-1.43-.62-2.59-1.152-3.76-1.93-3.538-2.358-5.52-5.287-6.902-9.852-.356-1.176-.725-3.922-.51-5.688.207-1.695.41-2.828.913-4.06 1.894-4.63 5.135-8.057 9.75-9.954 1.6-.66 2.848-1.002 4.785-1.183 3.8-.354 6.62.987 8.012 1.59 4.902 2.12 7.78 5.678 9.445 11.068.58 1.88.775 4.782.405 7.415-.194 1.393-.48 2.75-.914 4.062-1.302 3.947-4.15 6.643-7.413 8.633-1.546.87-2.52 1.174-3.703 1.715-.185.146-.16.108-.257.418-.015 1.29-.22 4.047.305 3.96.636-.045 1.813-.454 2.576-.764 1.997-.813 3.102-1.3 4.735-2.385 5.188-3.448 7.76-6.938 9.75-13.61.48-1.6.914-5.123.612-7.513m-20.72 3.454c.373-1.26 1.105-2.636 2.135-3.25.296-.185.47-.246.914-.305 2.588-.05 3.652.867 4.265 2.744.754 2.302.37 6.316-.71 7.818-.405.564-1.27 1.025-2.03 1.22-3.91.993-5.59-4.786-4.572-8.226"/><path d="M54.25 38.7V17.475h-3.367l.964-2.402h2.403v-.825c0-2.44.573-4.663 2.046-6.062 1.183-1.147 2.76-1.613 4.194-1.613 1.146 0 3.044-.23 3.652.02l.09 2.438c-.503-.215-2.56.087-3.492.087-2.654 0-3.37 2.367-3.37 5.02v.933h4.197v2.402h-4.162v23.153l-3.155-1.93z"/><path d="M74.028 28.27c0 1.507.073 2.977.25 4.16h-2.83l-.288-2.188h-.107c-.933 1.362-2.833 2.582-5.31 2.582-3.512 0-5.307-2.475-5.307-4.984 0-4.196 3.73-6.49 10.438-6.455v-.36c0-1.433-.15-3.752-3.703-3.716-1.647 0-3.65 0-4.155.082l-.04-2.352c.755-.125 2.477-.063 4.664-.063 5.342 0 6.388 3.323 6.388 6.802v6.49zm-3.084-4.697c-3.44-.072-7.35.536-7.35 3.907 0 2.08 1.362 3.012 2.94 3.012 2.294 0 3.765-1.434 4.266-2.903.11-.322.144-.683.144-1.005v-3.012zM77.005 11.883c-1.184 0-1.973-.933-1.973-2.045 0-1.11.824-2.007 2.043-2.007 1.22 0 2.01.897 2.01 2.008 0 1.112-.79 2.045-2.043 2.045h-.037zm-1.506 3.19h3.155V32.43H75.5V15.074zM86.254 10.914v4.16h4.52v2.402h-4.52v9.36c0 2.15.61 3.37 2.368 3.37.86 0 1.364-.07 1.828-.215l.145 2.404c-.608.214-1.58.43-2.798.43-1.47 0-2.653-.502-3.406-1.327-.858-.97-1.218-2.51-1.218-4.554v-9.467h-2.69v-2.402h2.69v-3.19l3.082-.97zM92.173 6.97h3.155V17.8h.072c.502-.897 1.29-1.723 2.26-2.225.932-.574 2.044-.897 3.228-.897 2.33 0 6.06 1.436 6.06 7.424V32.43h-3.156v-9.97c0-2.83-1.038-5.163-4.016-5.163-2.043 0-3.622 1.434-4.232 3.155-.18.43-.214.897-.214 1.506V32.43h-3.155V6.97zM113.22 20.74c0-2.223-.034-4.017-.143-5.666h2.833l.18 2.977h.072c1.254-2.15 3.335-3.37 6.132-3.37 4.23 0 7.387 3.55 7.387 8.82 0 6.24-3.837 9.324-7.888 9.324-2.33 0-4.304-1.004-5.342-2.726h-.073v12.325l-3.157-1.93V20.74zm3.157 4.625c0 .43.035.896.144 1.29.54 2.19 2.476 3.694 4.7 3.694 3.333 0 5.27-2.726 5.27-6.707 0-3.478-1.792-6.454-5.13-6.454-2.15 0-4.193 1.505-4.802 3.872-.073.43-.18.896-.18 1.29v3.013zM130.792 20.488c0-2.044-.035-3.8-.142-5.415h2.76l.143 3.407h.11c.788-2.33 2.722-3.803 4.84-3.803.322 0 .573.037.86.108v2.94c-.358-.036-.68-.07-1.112-.07-2.222 0-3.8 1.684-4.23 4.015-.072.466-.106.968-.106 1.506v9.252h-3.156l.034-11.94zM146.677 32.824c-4.662 0-8.32-3.443-8.32-8.93 0-5.81 3.84-9.216 8.607-9.216 4.985 0 8.356 3.623 8.356 8.896 0 6.452-4.483 9.25-8.607 9.25h-.036zm.11-2.367c3.01 0 5.27-2.832 5.27-6.777 0-2.94-1.47-6.634-5.198-6.634-3.696 0-5.31 3.442-5.31 6.743 0 3.8 2.153 6.668 5.2 6.668h.037zM156.43 19.77c0-1.828-.07-3.262-.14-4.696h2.76l.14 2.797h.11c.97-1.65 2.582-3.19 5.486-3.19 2.332 0 4.124 1.435 4.877 3.478h.072c.537-1.003 1.254-1.72 1.973-2.26 1.04-.788 2.15-1.22 3.8-1.22 2.33 0 5.738 1.508 5.738 7.532v10.22h-3.084v-9.826c0-3.37-1.255-5.342-3.764-5.342-1.83 0-3.193 1.326-3.767 2.833-.144.465-.25 1.04-.25 1.578V32.43h-3.084v-10.4c0-2.797-1.22-4.77-3.623-4.77-1.938 0-3.405 1.58-3.908 3.155-.18.467-.25 1.006-.25 1.543V32.43h-3.085V19.77zM184.743 11.883c-1.185 0-1.976-.933-1.976-2.045 0-1.11.827-2.007 2.046-2.007s2.007.897 2.007 2.008c0 1.112-.788 2.045-2.044 2.045h-.033zm-1.507 3.19h3.154V32.43h-3.154V15.074zM188.092 29.24c.967.572 2.617 1.217 4.195 1.217 2.258 0 3.334-1.11 3.334-2.582 0-1.506-.895-2.33-3.19-3.19-3.154-1.147-4.625-2.833-4.625-4.914 0-2.795 2.294-5.09 5.988-5.09 1.76 0 3.3.465 4.23 1.076l-.752 2.26c-.68-.396-1.935-1.006-3.55-1.006-1.865 0-2.867 1.077-2.867 2.367 0 1.47 1.002 2.117 3.263 2.977 2.976 1.112 4.553 2.618 4.553 5.235 0 3.084-2.4 5.235-6.455 5.235-1.9 0-3.658-.502-4.878-1.22l.755-2.366zM202.364 24.29c.07 4.267 2.762 6.022 5.915 6.022 2.26 0 3.66-.393 4.808-.86l.572 2.225c-1.112.502-3.048 1.112-5.81 1.112-5.307 0-8.533-3.55-8.533-8.75 0-5.272 3.118-9.396 8.175-9.396 5.664 0 7.136 4.985 7.136 8.175 0 .645-.034 1.146-.107 1.505l-12.156-.035zm9.215-2.26c.036-1.972-.826-5.127-4.34-5.127-3.225 0-4.59 2.94-4.84 5.128h9.18zM135.286 41.938c-.295.133-.944.274-1.77.274-2.173 0-3.494-1.19-3.494-2.994 0-1.956 1.565-3.135 3.656-3.135.823 0 1.41.15 1.666.265l-.27.862c-.328-.124-.774-.23-1.345-.23-1.39 0-2.397.76-2.397 2.185 0 1.303.883 2.14 2.386 2.14.508 0 1.036-.087 1.36-.22l.206.853zM145.724 36.18v2.377h2.896V36.18h1.248v5.934h-1.248V39.5h-2.896v2.614h-1.25V36.18zM160.664 36.18v3.46c0 1.163.56 1.698 1.4 1.698.904 0 1.443-.535 1.443-1.697v-3.46h1.25v3.39c0 1.83-1.09 2.642-2.733 2.642-1.585 0-2.61-.766-2.61-2.633v-3.4h1.25zM174.31 36.26c.47-.072 1.17-.124 1.893-.124.983 0 1.652.14 2.11.476.375.273.587.687.587 1.188 0 .767-.598 1.286-1.236 1.488v.027c.487.158.78.572.953 1.145.215.74.396 1.426.54 1.655h-1.29c-.102-.177-.264-.66-.457-1.4-.193-.774-.52-1.02-1.23-1.038h-.63v2.438h-1.24V36.26zm1.24 2.623h.742c.845 0 1.37-.387 1.37-.98 0-.65-.525-.95-1.34-.95-.396 0-.65.027-.772.054v1.876zM193.12 41.938c-.296.133-.943.274-1.767.274-2.173 0-3.495-1.19-3.495-2.994 0-1.956 1.565-3.135 3.656-3.135.822 0 1.413.15 1.666.265l-.273.862c-.323-.124-.772-.23-1.34-.23-1.392 0-2.398.76-2.398 2.185 0 1.303.884 2.14 2.386 2.14.508 0 1.036-.087 1.36-.22l.204.853zM203.56 36.18v2.377h2.896V36.18h1.25v5.934h-1.25V39.5h-2.896v2.614h-1.25V36.18z"/></g></svg>